#define test_width 85
#define test_height 64
static char test_bits[] = {
  0xA1, 0x10, 0xFE, 0xFF, 0xFF, 0xFD, 0xFF, 0xFF, 0x17, 0x00, 0x00, 0x16, 
  0x26, 0xFF, 0xFF, 0xFF, 0x7F, 0xFF, 0xFF, 0x1F, 0x00, 0x00, 0x9A, 0x22, 
  0xFE, 0xFF, 0xFF, 0xEF, 0xF9, 0xFF, 0x0F, 0x00, 0x00, 0x25, 0x80, 0xFE, 
  0xFF, 0xFF, 0xBB, 0xFF, 0xFF, 0x13, 0x00, 0x00, 0x24, 0x49, 0xFF, 0xFF, 
  0xFF, 0xEE, 0xDA, 0xFF, 0x37, 0x00, 0x10, 0x4A, 0x00, 0xFF, 0xFF, 0xFF, 
  0xBF, 0xBA, 0xFF, 0x0F, 0x00, 0x00, 0x50, 0x04, 0xFF, 0xFF, 0xFF, 0xFE, 
  0xCD, 0xFF, 0x17, 0x00, 0x00, 0x06, 0x41, 0xFF, 0xFF, 0x5F, 0xFE, 0x77, 
  0xFF, 0x1F, 0x00, 0x00, 0xA9, 0xA0, 0xFF, 0xFF, 0x9F, 0xFE, 0xDF, 0xFF, 
  0x07, 0x00, 0x00, 0x02, 0x8A, 0xFF, 0xFF, 0x1F, 0xFE, 0x3F, 0xFF, 0x07, 
  0x00, 0x00, 0x41, 0x02, 0xFF, 0xFF, 0x17, 0xFF, 0x9F, 0xFF, 0x17, 0x00, 
  0x00, 0x25, 0x80, 0xFF, 0xFF, 0x0D, 0xFE, 0xFF, 0xFF, 0x05, 0x00, 0x00, 
  0x80, 0x10, 0xFF, 0xFF, 0x07, 0xFE, 0xF7, 0xFF, 0x08, 0x00, 0x00, 0x2A, 
  0x89, 0xFF, 0xFF, 0x01, 0xF8, 0xBD, 0xBF, 0x13, 0x00, 0x00, 0x82, 0x80, 
  0xFF, 0xDF, 0x03, 0xFC, 0xEB, 0xBF, 0x25, 0x00, 0x00, 0x18, 0x80, 0xFF, 
  0xFF, 0x00, 0xFC, 0xFB, 0x3F, 0x00, 0x00, 0x00, 0x49, 0x88, 0xFF, 0xFF, 
  0x03, 0xA8, 0xFC, 0x17, 0x04, 0x00, 0x00, 0x01, 0x82, 0xFF, 0xFF, 0x00, 
  0x12, 0xE0, 0x5F, 0x4A, 0x00, 0x00, 0x5A, 0xC0, 0xFF, 0xFF, 0x01, 0x02, 
  0xE0, 0x0F, 0x14, 0x00, 0x00, 0x00, 0xE0, 0xFF, 0xFF, 0x06, 0x00, 0xE0, 
  0x65, 0x80, 0x00, 0x00, 0x19, 0xD0, 0xFF, 0xFF, 0x0F, 0x00, 0x60, 0x1F, 
  0x8C, 0x00, 0x00, 0x04, 0xCA, 0xFF, 0xFF, 0x81, 0x02, 0x70, 0x00, 0x21, 
  0x00, 0x00, 0x44, 0xE0, 0xFF, 0xFF, 0x41, 0x04, 0xD8, 0x00, 0x10, 0x00, 
  0x00, 0x22, 0xE0, 0xFF, 0x7F, 0x81, 0x00, 0x70, 0x40, 0x54, 0x00, 0x00, 
  0x00, 0xE8, 0xFF, 0xFF, 0x00, 0x00, 0x28, 0x00, 0x11, 0x00, 0x00, 0x86, 
  0xF0, 0xFF, 0xBF, 0x02, 0x00, 0x84, 0x00, 0x14, 0x00, 0x00, 0x81, 0xF0, 
  0xFF, 0x7F, 0x83, 0x00, 0x20, 0x00, 0x00, 0x00, 0x00, 0x7E, 0xF4, 0xFF, 
  0xFF, 0x08, 0x00, 0x00, 0x20, 0x94, 0x00, 0x00, 0x7F, 0xFE, 0xFF, 0xFF, 
  0x4B, 0x00, 0x00, 0x00, 0x9D, 0x02, 0x00, 0xFF, 0xFF, 0xFF, 0xDF, 0x0F, 
  0x00, 0x00, 0x00, 0x20, 0x00, 0x00, 0xFF, 0xFF, 0xFF, 0x3F, 0x9E, 0x00, 
  0x00, 0x80, 0x10, 0x09, 0x00, 0xFF, 0xFF, 0xFF, 0x2F, 0x3A, 0x00, 0x00, 
  0x00, 0x54, 0x00, 0x00, 0xFF, 0xFF, 0xFF, 0x7F, 0x1E, 0x00, 0x00, 0x00, 
  0xA0, 0x12, 0x00, 0xFF, 0xFF, 0xFF, 0x3F, 0x14, 0x00, 0x00, 0x00, 0x8A, 
  0x04, 0x00, 0xFF, 0xFF, 0xFF, 0x67, 0x4E, 0x00, 0x00, 0x80, 0x08, 0x21, 
  0x00, 0xFF, 0xFF, 0xFF, 0x2F, 0x0A, 0x00, 0x00, 0x00, 0xA0, 0x44, 0x00, 
  0xFF, 0xFF, 0xFF, 0x3B, 0x03, 0x00, 0x00, 0x00, 0x01, 0x51, 0x00, 0xFF, 
  0xFF, 0x7F, 0x02, 0x00, 0x00, 0x80, 0x00, 0x20, 0x15, 0x00, 0xFF, 0xFF, 
  0xFF, 0x21, 0x00, 0x00, 0x80, 0x00, 0xA0, 0x84, 0x00, 0xFF, 0xFF, 0x7F, 
  0x07, 0x00, 0x00, 0x00, 0x00, 0x04, 0x2A, 0x01, 0xFF, 0xFF, 0xFF, 0x01, 
  0x00, 0x00, 0x20, 0x00, 0x40, 0x40, 0x04, 0xFF, 0xFF, 0xFF, 0x01, 0x20, 
  0x00, 0x80, 0x00, 0x88, 0x92, 0x01, 0xFF, 0xFF, 0xFF, 0x05, 0x10, 0x00, 
  0x18, 0x01, 0x00, 0x59, 0x05, 0xFF, 0xFF, 0xFF, 0xFF, 0x2B, 0x00, 0x80, 
  0x00, 0x10, 0x25, 0x0A, 0xFF, 0xFF, 0xFF, 0xBF, 0x09, 0x01, 0x02, 0x01, 
  0x10, 0xD2, 0x08, 0xFF, 0xFF, 0xFF, 0xFF, 0xEB, 0x01, 0x50, 0x00, 0x00, 
  0x28, 0x06, 0xFF, 0xFF, 0xFF, 0x7F, 0xFC, 0x04, 0x40, 0x00, 0x88, 0x18, 
  0x0D, 0xFF, 0xFF, 0xFF, 0x5F, 0x37, 0x00, 0x18, 0x03, 0x80, 0xA2, 0x11, 
  0xFF, 0xFF, 0xFF, 0xDF, 0x5F, 0x26, 0x5C, 0x05, 0x00, 0x84, 0x18, 0xFF, 
  0xFF, 0xFF, 0xEF, 0x35, 0x03, 0xA1, 0x00, 0x00, 0x59, 0x07, 0xFF, 0xFF, 
  0xFF, 0xFF, 0xEF, 0x07, 0x06, 0x05, 0x00, 0x6A, 0x16, 0xFF, 0xFF, 0xFF, 
  0x6F, 0x99, 0x77, 0x90, 0x02, 0x80, 0x10, 0x06, 0xFF, 0xFF, 0xFF, 0xFF, 
  0x0D, 0xEA, 0x12, 0x02, 0x00, 0x94, 0x06, 0xFF, 0xFF, 0xFF, 0xFF, 0x67, 
  0x36, 0x51, 0x04, 0x00, 0x60, 0x19, 0xFF, 0xFF, 0xFF, 0xFF, 0xD7, 0xFC, 
  0xBE, 0x0B, 0x00, 0xA2, 0x18, 0xFF, 0xFF, 0xFF, 0xF7, 0xED, 0xFB, 0xEF, 
  0x09, 0x80, 0x49, 0x1D, 0xFF, 0xFF, 0xFF, 0xBF, 0xE6, 0xFA, 0xDF, 0x05, 
  0x00, 0x49, 0x15, 0xFF, 0xFF, 0xFF, 0xF7, 0xF2, 0xFF, 0xF7, 0x07, 0x00, 
  0x90, 0x16, 0xFF, 0xFF, 0xFF, 0x7F, 0xFB, 0xFC, 0xEF, 0x77, 0x00, 0x64, 
  0x0B, 0xFF, 0xFF, 0xFF, 0x7B, 0xF9, 0xFB, 0xFF, 0x43, 0x00, 0x80, 0x04, 
  0xFF, 0xFF, 0xFF, 0xFF, 0xF9, 0xFE, 0xFF, 0x8B, 0x00, 0x51, 0x16, 0xFF, 
  0xFF, 0xFF, 0xBF, 0xFE, 0xFF, 0xFF, 0x93, 0x00, 0x08, 0x12, 0xFF, 0xFF, 
  0xFF, 0x5B, 0xFE, 0xFF, 0xFF, 0x1B, 0x00, 0xA0, 0x0E, 0xFF, 0xFF, 0xFF, 
  0xDF, 0x7E, 0xFF, 0xFF, 0x4B, 0x41, 0x48, 0x11, };
